<svg width="31" height="42" viewBox="0 0 31 42" fill="none" xmlns="http://www.w3.org/2000/svg">
<path d="M8.97506 30.7647V27.8282C8.97506 25.8895 5.65708 24.6065 3.23095 21.2651C1.2659 18.5588 0.562957 15.12 1.26589 11.9982C1.96882 8.87634 3.71318 6.08662 6.21212 4.08779C8.71107 2.08895 11.8158 1 15.0158 1C18.2158 1 21.3206 2.08895 23.8195 4.08779C26.3185 6.08662 28.0628 8.87634 28.7658 11.9982C29.4687 15.12 29.4034 18.6936 27.3507 21.2651C25.2979 23.8367 21.0566 25.8895 21.0566 27.8282V30.7647M10.9093 41H19.0351M9.28456 36.1795H21.0878" stroke="#1A1A1A" stroke-width="2"/>
</svg>
