<svg width="46" height="46" viewBox="0 0 46 46" fill="none" xmlns="http://www.w3.org/2000/svg">
<path d="M42.8 13.1L34 17.5M34 17.5L32.9 18.05L23 23M34 17.5V25.2M34 17.5L13.1 6.5M23 23L3.2 13.1M23 23V43.9M30.8716 4.0404L35.2716 6.3504C40.0038 8.8342 42.371 10.075 43.6866 12.308C45 14.5388 45 17.3174 45 22.8724V23.1298C45 28.6826 45 31.4612 43.6866 33.692C42.371 35.925 40.0038 37.168 35.2716 39.6518L30.8716 41.9596C27.0084 43.9858 25.0768 45 23 45C20.9232 45 18.9916 43.988 15.1284 41.9596L10.7284 39.6496C5.9962 37.1658 3.629 35.925 2.3134 33.692C1 31.4612 1 28.6826 1 23.132V22.8746C1 17.3196 1 14.541 2.3134 12.3102C3.629 10.0772 5.9962 8.8342 10.7284 6.3526L15.1284 4.0426C18.9916 2.0142 20.9232 1 23 1C25.0768 1 27.0084 2.012 30.8716 4.0404Z" stroke="#FEA100" stroke-width="2" stroke-linecap="round"/>
</svg>
