<svg width="30" height="30" viewBox="0 0 30 30" fill="none" xmlns="http://www.w3.org/2000/svg">
<path d="M17.3377 11.1429C18.6727 11.1429 19.953 11.6875 20.897 12.657C21.8409 13.6264 22.3713 14.9413 22.3713 16.3123V21.8264C22.3713 22.2834 22.1945 22.7217 21.8798 23.0448C21.5652 23.368 21.1384 23.5495 20.6934 23.5495C20.2484 23.5495 19.8217 23.368 19.507 23.0448C19.1923 22.7217 19.0156 22.2834 19.0156 21.8264V16.3123C19.0156 15.8553 18.8388 15.417 18.5241 15.0939C18.2095 14.7707 17.7827 14.5892 17.3377 14.5892C16.8927 14.5892 16.466 14.7707 16.1513 15.0939C15.8367 15.417 15.6599 15.8553 15.6599 16.3123V21.8264C15.6599 22.2834 15.4831 22.7217 15.1684 23.0448C14.8538 23.368 14.427 23.5495 13.982 23.5495C13.537 23.5495 13.1103 23.368 12.7956 23.0448C12.481 22.7217 12.3042 22.2834 12.3042 21.8264V13.2106C12.3039 12.8984 12.3863 12.592 12.5425 12.3241C12.6987 12.0562 12.9228 11.8369 13.1909 11.6897C13.459 11.5424 13.761 11.4728 14.0647 11.4882C14.3683 11.5035 14.6622 11.6034 14.9149 11.777C15.633 11.3726 16.4585 11.1429 17.3377 11.1429ZM8.39817 11.4875C8.84316 11.4875 9.26993 11.669 9.58459 11.9922C9.89924 12.3153 10.076 12.7536 10.076 13.2106V21.8264C10.076 22.2834 9.89924 22.7217 9.58459 23.0448C9.26993 23.368 8.84316 23.5495 8.39817 23.5495C7.95318 23.5495 7.52641 23.368 7.21176 23.0448C6.8971 22.7217 6.72033 22.2834 6.72033 21.8264V13.2106C6.72033 12.7536 6.8971 12.3153 7.21176 11.9922C7.52641 11.669 7.95318 11.4875 8.39817 11.4875ZM8.38922 5.74365C8.98284 5.74365 9.55215 5.98583 9.9719 6.41692C10.3917 6.84801 10.6275 7.43269 10.6275 8.04234C10.6275 8.65198 10.3917 9.23666 9.9719 9.66775C9.55215 10.0988 8.98284 10.341 8.38922 10.341C7.7959 10.341 7.22688 10.099 6.80734 9.66809C6.3878 9.23722 6.1521 8.65283 6.1521 8.04348C6.1521 7.43414 6.3878 6.84975 6.80734 6.41888C7.22688 5.98801 7.7959 5.74365 8.38922 5.74365Z" fill="#1A1A1A"/>
<path fill-rule="evenodd" clip-rule="evenodd" d="M22.3712 0C24.1512 0 25.8583 0.726183 27.1169 2.0188C28.3755 3.31141 29.0826 5.06457 29.0826 6.8926V22.9753C29.0832 24.7425 28.4228 26.4424 27.2379 27.7238C26.053 29.0052 24.4342 29.7703 22.7158 29.8611L22.3712 29.8702H6.71137L6.36686 29.8611C4.70825 29.7735 3.14017 29.0574 1.96581 27.8513C0.791451 26.6453 0.0942262 25.0349 0.00894838 23.3315L0 22.9753V6.8926C0 5.06457 0.707089 3.31141 1.96572 2.0188C3.22434 0.726183 4.93141 0 6.71137 0H22.3712ZM6.71137 3.4463C5.82139 3.4463 4.96786 3.80939 4.33855 4.4557C3.70923 5.10201 3.35569 5.97859 3.35569 6.8926V22.9753C3.35569 23.8894 3.70923 24.7659 4.33855 25.4122C4.96786 26.0586 5.82139 26.4216 6.71137 26.4216H22.3712C23.2612 26.4216 24.1148 26.0586 24.7441 25.4122C25.3734 24.7659 25.7269 23.8894 25.7269 22.9753V6.8926C25.7269 5.97859 25.3734 5.10201 24.7441 4.4557C24.1148 3.80939 23.2612 3.4463 22.3712 3.4463H6.71137Z" fill="#1A1A1A"/>
</svg>
