<svg width="59" height="42" viewBox="0 0 59 42" fill="none" xmlns="http://www.w3.org/2000/svg">
<path d="M47.9131 10C47.5468 15.0838 43.7756 19 39.6631 19C35.5506 19 31.7731 15.085 31.4131 10C31.0381 4.71125 34.7093 1 39.6631 1C44.6168 1 48.2881 4.8075 47.9131 10Z" stroke="#FEA100" stroke-width="2" stroke-linecap="round" stroke-linejoin="round"/>
<path d="M39.6631 27C31.5169 27 23.6831 31.0463 21.7206 38.9263C21.4606 39.9688 22.1144 41 23.1856 41H56.1419C57.2131 41 57.8631 39.9688 57.6069 38.9263C55.6444 30.92 47.8106 27 39.6631 27Z" stroke="#FEA100" stroke-width="2" stroke-miterlimit="10"/>
<path d="M22.6631 12.2428C22.3706 16.3028 19.3231 19.5003 16.0381 19.5003C12.7531 19.5003 9.70062 16.304 9.41312 12.2428C9.11437 8.019 12.0806 5.00024 16.0381 5.00024C19.9956 5.00024 22.9619 8.0965 22.6631 12.2428Z" stroke="#FEA100" stroke-width="2" stroke-linecap="round" stroke-linejoin="round"/>
<path d="M22.7477 28.4313C20.4914 27.3975 18.0064 27 15.3727 27C8.87266 27 2.61017 30.2313 1.04142 36.525C0.835167 37.3575 1.35767 38.1813 2.21267 38.1813H16.2477" stroke="#FEA100" stroke-width="2" stroke-miterlimit="10" stroke-linecap="round"/>
</svg>
