<svg width="49" height="46" viewBox="0 0 49 46" fill="none" xmlns="http://www.w3.org/2000/svg">
<path d="M5.63158 31.1053H1M42.6842 31.1053H47.3158M24.1579 5.63158C24.7721 5.63158 25.3611 5.38759 25.7954 4.9533C26.2297 4.51901 26.4737 3.92998 26.4737 3.31579C26.4737 2.7016 26.2297 2.11257 25.7954 1.67828C25.3611 1.24398 24.7721 1 24.1579 1C23.5437 1 22.9547 1.24398 22.5204 1.67828C22.0861 2.11257 21.8421 2.7016 21.8421 3.31579C21.8421 3.92998 22.0861 4.51901 22.5204 4.9533C22.9547 5.38759 23.5437 5.63158 24.1579 5.63158ZM24.1579 5.63158V14.8947M5.63158 14.8947H42.6842V45H5.63158V14.8947Z" stroke="#1A1A1A" stroke-width="2" stroke-linecap="square"/>
<path d="M19.5264 35.7372H28.7895M17.2106 25.3161C17.2106 25.6232 17.0886 25.9177 16.8714 26.1349C16.6543 26.352 16.3598 26.474 16.0527 26.474C15.7456 26.474 15.4511 26.352 15.2339 26.1349C15.0168 25.9177 14.8948 25.6232 14.8948 25.3161C14.8948 25.009 15.0168 24.7145 15.2339 24.4973C15.4511 24.2802 15.7456 24.1582 16.0527 24.1582C16.3598 24.1582 16.6543 24.2802 16.8714 24.4973C17.0886 24.7145 17.2106 25.009 17.2106 25.3161ZM33.4211 25.3161C33.4211 25.6232 33.2991 25.9177 33.082 26.1349C32.8648 26.352 32.5703 26.474 32.2632 26.474C31.9561 26.474 31.6616 26.352 31.4444 26.1349C31.2273 25.9177 31.1053 25.6232 31.1053 25.3161C31.1053 25.009 31.2273 24.7145 31.4444 24.4973C31.6616 24.2802 31.9561 24.1582 32.2632 24.1582C32.5703 24.1582 32.8648 24.2802 33.082 24.4973C33.2991 24.7145 33.4211 25.009 33.4211 25.3161Z" stroke="#1A1A1A" stroke-width="2" stroke-linecap="square"/>
</svg>
