<svg width="49" height="46" viewBox="0 0 49 46" fill="none" xmlns="http://www.w3.org/2000/svg">
<path d="M5.63158 31.1053H1M42.6842 31.1053H47.3158M24.1579 5.63158C24.7721 5.63158 25.3611 5.38759 25.7954 4.9533C26.2297 4.51901 26.4737 3.92998 26.4737 3.31579C26.4737 2.7016 26.2297 2.11257 25.7954 1.67828C25.3611 1.24398 24.7721 1 24.1579 1C23.5437 1 22.9547 1.24398 22.5204 1.67828C22.0861 2.11257 21.8421 2.7016 21.8421 3.31579C21.8421 3.92998 22.0861 4.51901 22.5204 4.9533C22.9547 5.38759 23.5437 5.63158 24.1579 5.63158ZM24.1579 5.63158V14.8947M5.63158 14.8947H42.6842V45H5.63158V14.8947Z" stroke="#FEA100" stroke-width="2" stroke-linecap="square"/>
<path d="M19.5264 35.7371H28.7895M17.2106 25.316C17.2106 25.6231 17.0886 25.9176 16.8714 26.1348C16.6543 26.3519 16.3598 26.4739 16.0527 26.4739C15.7456 26.4739 15.4511 26.3519 15.2339 26.1348C15.0168 25.9176 14.8948 25.6231 14.8948 25.316C14.8948 25.0089 15.0168 24.7144 15.2339 24.4973C15.4511 24.2801 15.7456 24.1581 16.0527 24.1581C16.3598 24.1581 16.6543 24.2801 16.8714 24.4973C17.0886 24.7144 17.2106 25.0089 17.2106 25.316ZM33.4211 25.316C33.4211 25.6231 33.2991 25.9176 33.082 26.1348C32.8648 26.3519 32.5703 26.4739 32.2632 26.4739C31.9561 26.4739 31.6616 26.3519 31.4444 26.1348C31.2273 25.9176 31.1053 25.6231 31.1053 25.316C31.1053 25.0089 31.2273 24.7144 31.4444 24.4973C31.6616 24.2801 31.9561 24.1581 32.2632 24.1581C32.5703 24.1581 32.8648 24.2801 33.082 24.4973C33.2991 24.7144 33.4211 25.0089 33.4211 25.316Z" stroke="#FEA100" stroke-width="2" stroke-linecap="square"/>
</svg>
