<svg width="52" height="35" viewBox="0 0 52 35" fill="none" xmlns="http://www.w3.org/2000/svg">
<path d="M34.3333 12L46.9806 5.741C47.4039 5.53155 47.8744 5.43267 48.3472 5.45375C48.82 5.47484 49.2796 5.61518 49.6822 5.86147C50.0849 6.10775 50.4173 6.45181 50.6479 6.861C50.8786 7.27018 50.9997 7.73092 51 8.1995V26.8005C50.9997 27.2691 50.8786 27.7298 50.6479 28.139C50.4173 28.5482 50.0849 28.8922 49.6822 29.1385C49.2796 29.3848 48.82 29.5252 48.3472 29.5462C47.8744 29.5673 47.4039 29.4685 46.9806 29.259L34.3333 23V12ZM1 6.5C1 5.04131 1.58532 3.64236 2.62718 2.61091C3.66905 1.57946 5.08213 1 6.55556 1H28.7778C30.2512 1 31.6643 1.57946 32.7061 2.61091C33.748 3.64236 34.3333 5.04131 34.3333 6.5V28.5C34.3333 29.9587 33.748 31.3576 32.7061 32.3891C31.6643 33.4205 30.2512 34 28.7778 34H6.55556C5.08213 34 3.66905 33.4205 2.62718 32.3891C1.58532 31.3576 1 29.9587 1 28.5V6.5Z" stroke="#FEA100" stroke-width="2" stroke-linecap="round" stroke-linejoin="round"/>
</svg>
